<svg xmlns="http://www.w3.org/2000/svg" viewBox="0 0 288.81 214.53"><title>Artboard 5</title><path d="M270.73,1.29H18A17.7,17.7,0,0,0,.38,18.94V141.88A17.7,17.7,0,0,0,18,159.53h3.45v55l77.11-55H270.73a17.7,17.7,0,0,0,17.65-17.65V18.94A17.7,17.7,0,0,0,270.73,1.29Zm-188,99.06A22.69,22.69,0,1,1,105.4,77.66,22.69,22.69,0,0,1,82.71,100.35Zm61.67,1.38A22.69,22.69,0,1,1,167.07,79,22.69,22.69,0,0,1,144.38,101.73ZM206,103.1a22.69,22.69,0,1,1,22.69-22.69A22.68,22.68,0,0,1,206,103.1Z" fill="#8c43ff"/></svg>