<svg xmlns="http://www.w3.org/2000/svg" viewBox="0 0 220.69 282.74"><title>Artboard 1 copy</title><circle cx="110.34" cy="59.45" r="31.45" fill="#8c43ff"/><rect x="33.15" y="243.79" width="154.36" height="12" fill="#8c43ff"/><path d="M205.84.74h-191A14.5,14.5,0,0,0,.34,15.24v253a14.5,14.5,0,0,0,14.5,14.5h191a14.5,14.5,0,0,0,14.5-14.5v-253A14.5,14.5,0,0,0,205.84.74Zm5.5,267.5a5.51,5.51,0,0,1-5.5,5.5h-191a5.5,5.5,0,0,1-5.5-5.5v-253a5.51,5.51,0,0,1,5.5-5.5h191a5.52,5.52,0,0,1,5.5,5.5Z" fill="#8c43ff"/><rect x="33.15" y="184.19" width="154.36" height="12" fill="#8c43ff"/><rect x="33.15" y="213.99" width="154.36" height="12" fill="#8c43ff"/><path d="M110.34,93.86c-41.5,0-70.66,25-70.66,71.59H181C181,118.85,151.83,93.86,110.34,93.86Z" fill="#8c43ff"/></svg>